<svg width="20" height="21" viewBox="0 0 20 21" fill="none" xmlns="http://www.w3.org/2000/svg">
<g id="icon/cart">
<path id="Vector" d="M2.34945 2.73906C2.75837 2.73906 2.99936 2.74033 3.17342 2.76168C3.25268 2.7714 3.2929 2.78283 3.31137 2.78962C3.31977 2.79271 3.32392 2.79527 3.32392 2.79527C3.32392 2.79527 3.32649 2.79848 3.33061 2.80607C3.33976 2.82288 3.35618 2.85987 3.37529 2.93422C3.41724 3.0975 3.44599 3.32678 3.49254 3.71608L4.20245 9.65307C4.28704 10.3607 4.35794 10.9538 4.47848 11.4229C4.60611 11.9196 4.80845 12.3611 5.21419 12.7079C5.27125 12.7566 5.32979 12.8014 5.38974 12.8424C5.91321 13.3233 6.69417 13.3233 8.23269 13.3233H13.9099C13.9287 13.3233 13.9474 13.3233 13.966 13.3233H14.2621C14.9702 13.3233 15.565 13.3234 16.0447 13.266C16.5533 13.2051 17.0162 13.072 17.4146 12.7485C17.8131 12.425 18.0263 12.0094 18.1725 11.5387C18.3105 11.0947 18.4082 10.5325 18.5246 9.8632L18.6937 8.89098C18.8522 7.97967 18.9833 7.22615 18.9985 6.62436C19.0144 5.99321 18.9085 5.40805 18.4769 4.91983C18.0453 4.43162 17.4604 4.23535 16.8081 4.14663C16.1862 4.06204 15.389 4.06207 14.4248 4.06209H4.92362L4.8599 3.52917C4.81922 3.1886 4.78157 2.87342 4.71592 2.61792C4.64326 2.33511 4.51749 2.04257 4.24267 1.80767C3.96784 1.57277 3.65023 1.48634 3.34874 1.44936C3.07637 1.41594 2.74531 1.41598 2.38758 1.41602L1.69034 1.41603C1.30907 1.41603 1 1.7122 1 2.07754C1 2.44289 1.30907 2.73906 1.69034 2.73906H2.34945Z" fill="#FF6E3F"/>
<path id="Vector_2" fill-rule="evenodd" clip-rule="evenodd" d="M6.85973 15.1692C5.67784 15.1692 4.71973 16.1199 4.71973 17.2926C4.71973 18.4654 5.67784 19.4161 6.85973 19.4161C8.04162 19.4161 8.99973 18.4654 8.99973 17.2926C8.99973 16.1199 8.04162 15.1692 6.85973 15.1692ZM6.33306 17.2926C6.33306 17.004 6.56886 16.77 6.85973 16.77C7.1506 16.77 7.38639 17.004 7.38639 17.2926C7.38639 17.5813 7.1506 17.8152 6.85973 17.8152C6.56886 17.8152 6.33306 17.5813 6.33306 17.2926Z" fill="#FF6E3F"/>
<path id="Vector_3" fill-rule="evenodd" clip-rule="evenodd" d="M14.8597 15.1692C13.6778 15.1692 12.7197 16.1199 12.7197 17.2926C12.7197 18.4654 13.6778 19.4161 14.8597 19.4161C16.0416 19.4161 16.9997 18.4654 16.9997 17.2926C16.9997 16.1199 16.0416 15.1692 14.8597 15.1692ZM14.333 17.2926C14.333 17.004 14.5688 16.77 14.8597 16.77C15.1506 16.77 15.3864 17.004 15.3864 17.2926C15.3864 17.5813 15.1506 17.8152 14.8597 17.8152C14.5688 17.8152 14.333 17.5813 14.333 17.2926Z" fill="#FF6E3F"/>
</g>
</svg>
