<svg width="12" height="11" viewBox="0 0 12 11" fill="none" xmlns="http://www.w3.org/2000/svg">
<path id="Vector" d="M1.04975 9.3891C0.756853 9.682 0.756853 10.1568 1.04975 10.4497C1.34264 10.7426 1.81751 10.7426 2.11041 10.4497L5.99951 6.5606L9.88861 10.4497C10.1815 10.7426 10.6564 10.7426 10.9493 10.4497C11.2422 10.1568 11.2422 9.682 10.9493 9.3891L7.06021 5.49996L10.9492 1.6109C11.2421 1.318 11.2421 0.843131 10.9492 0.550241C10.6563 0.257341 10.1815 0.257341 9.88861 0.550241L5.99951 4.4393L2.11046 0.550241C1.81756 0.257341 1.34269 0.257341 1.0498 0.550241C0.756903 0.843131 0.756903 1.318 1.0498 1.6109L4.93886 5.49996L1.04975 9.3891Z" fill="#C0C0C0"/>
</svg>
