<svg width="15" height="15" viewBox="0 0 15 15" fill="none" xmlns="http://www.w3.org/2000/svg">
<path id="Vector" fill-rule="evenodd" clip-rule="evenodd" d="M5.48053 0.75H5.39769C4.46128 0.749987 3.70118 0.749976 3.10215 0.830513C2.47805 0.914423 1.94459 1.09499 1.51979 1.51979C1.09499 1.94459 0.914423 2.47805 0.830513 3.10215C0.749976 3.70118 0.749987 4.46126 0.75 5.39767V6.16749C0.749987 7.1039 0.749976 7.86398 0.830513 8.463C0.914423 9.08715 1.09499 9.62062 1.51979 10.0454C1.94459 10.4702 2.47805 10.6508 3.10215 10.7347C3.5872 10.7998 4.17725 10.8122 4.8803 10.8146C4.88977 11.2214 4.90979 11.5817 4.9523 11.8979C5.03621 12.5219 5.21678 13.0554 5.64157 13.4802C6.06637 13.905 6.59983 14.0856 7.22394 14.1695C7.82295 14.25 8.58308 14.25 9.51953 14.25H9.60232C10.5387 14.25 11.2988 14.25 11.8979 14.1695C12.5219 14.0856 13.0554 13.905 13.4802 13.4802C13.905 13.0554 14.0856 12.5219 14.1694 11.8979C14.25 11.2988 14.25 10.5388 14.25 9.60232V8.83253C14.25 7.89608 14.25 7.136 14.1694 6.53698C14.0856 5.91288 13.905 5.37941 13.4802 4.95461C13.0554 4.52981 12.5219 4.34924 11.8979 4.26533C11.4128 4.20013 10.8227 4.18775 10.1197 4.18538C10.1102 3.77867 10.0902 3.41831 10.0477 3.10215C9.96383 2.47805 9.78323 1.94459 9.35843 1.51979C8.93362 1.09499 8.40015 0.914423 7.77608 0.830513C7.17704 0.749976 6.41694 0.749987 5.48053 0.75ZM3.25334 1.95503C3.76796 1.88585 4.45153 1.88464 5.43911 1.88464C6.42669 1.88464 7.11026 1.88585 7.62488 1.95503C8.12318 2.02202 8.37727 2.14325 8.55615 2.3221C8.73495 2.50095 8.85623 2.75507 8.9232 3.25334C8.95823 3.51403 8.97592 3.81879 8.9847 4.18544C8.2893 4.18796 7.70498 4.20066 7.22394 4.26533C6.59983 4.34924 6.06637 4.52981 5.64157 4.95461C5.21678 5.37941 5.03621 5.91288 4.9523 6.53698C4.87176 7.13601 4.87177 7.89608 4.87178 8.83253L4.87179 9.6798C4.17927 9.67725 3.66256 9.66518 3.25334 9.61013C2.75507 9.54315 2.50095 9.42195 2.3221 9.24307C2.14325 9.0642 2.02202 8.8101 1.95503 8.31188C1.88585 7.79723 1.88464 7.11365 1.88464 6.12608V5.43911C1.88464 4.45153 1.88585 3.76796 1.95503 3.25334C2.02202 2.75507 2.14325 2.50095 2.3221 2.3221C2.50095 2.14325 2.75507 2.02202 3.25334 1.95503Z" fill="#FF6E3F"/>
</svg>
