<svg width="7" height="8" viewBox="0 0 7 8" fill="none" xmlns="http://www.w3.org/2000/svg">
<rect width="7" height="8" fill="#F0EFEF"/>
<g id="&#240;&#159;&#148;&#180; &#236;&#158;&#145;&#236;&#151;&#133;&#236;&#153;&#132;&#235;&#163;&#140; &#240;&#159;&#148;&#180;">
<path d="M-6123 -2142C-6123 -2143.1 -6122.1 -2144 -6121 -2144H5068C5069.1 -2144 5070 -2143.1 5070 -2142V9864C5070 9865.1 5069.1 9866 5068 9866H-6121C-6122.1 9866 -6123 9865.1 -6123 9864V-2142Z" fill="black"/>
<path d="M-6121 -2144V-2143H5068V-2144V-2145H-6121V-2144ZM5070 -2142H5069V9864H5070H5071V-2142H5070ZM5068 9866V9865H-6121V9866V9867H5068V9866ZM-6123 9864H-6122V-2142H-6123H-6124V9864H-6123ZM-6121 9866V9865C-6121.55 9865 -6122 9864.55 -6122 9864H-6123H-6124C-6124 9865.66 -6122.66 9867 -6121 9867V9866ZM5070 9864H5069C5069 9864.55 5068.55 9865 5068 9865V9866V9867C5069.66 9867 5071 9865.66 5071 9864H5070ZM5068 -2144V-2143C5068.55 -2143 5069 -2142.55 5069 -2142H5070H5071C5071 -2143.66 5069.66 -2145 5068 -2145V-2144ZM-6121 -2144V-2145C-6122.66 -2145 -6124 -2143.66 -6124 -2142H-6123H-6122C-6122 -2142.55 -6121.55 -2143 -6121 -2143V-2144Z" fill="black" fill-opacity="0.1"/>
<g id="&#226;&#154;&#170;&#239;&#184;&#143; &#236;&#156;&#160;&#236;&#160;&#128; &#226;&#154;&#170;&#239;&#184;&#143;">
<path d="M-5697 -1725C-5697 -1726.1 -5696.1 -1727 -5695 -1727H4765C4766.1 -1727 4767 -1726.1 4767 -1725V2779C4767 2780.1 4766.1 2781 4765 2781H-5695C-5696.1 2781 -5697 2780.1 -5697 2779V-1725Z" fill="#575757"/>
<path d="M-5695 -1727V-1726H4765V-1727V-1728H-5695V-1727ZM4767 -1725H4766V2779H4767H4768V-1725H4767ZM4765 2781V2780H-5695V2781V2782H4765V2781ZM-5697 2779H-5696V-1725H-5697H-5698V2779H-5697ZM-5695 2781V2780C-5695.55 2780 -5696 2779.55 -5696 2779H-5697H-5698C-5698 2780.66 -5696.66 2782 -5695 2782V2781ZM4767 2779H4766C4766 2779.55 4765.55 2780 4765 2780V2781V2782C4766.66 2782 4768 2780.66 4768 2779H4767ZM4765 -1727V-1726C4765.55 -1726 4766 -1725.55 4766 -1725H4767H4768C4768 -1726.66 4766.66 -1728 4765 -1728V-1727ZM-5695 -1727V-1728C-5696.66 -1728 -5698 -1726.66 -5698 -1725H-5697H-5696C-5696 -1725.55 -5695.55 -1726 -5695 -1726V-1727Z" fill="black" fill-opacity="0.1"/>
<g id="2.5.2.2 &#236;&#158;&#165;&#235;&#176;&#148;&#234;&#181;&#172;&#235;&#139;&#136; - &#236;&#157;&#184;&#236;&#155;&#144; &#236;&#136;&#152; &#234;&#184;&#176;&#236;&#164;&#128;" clip-path="url(#clip0_13_777)">
<rect width="375" height="812" transform="translate(-340 -176)" fill="#FAFAFA"/>
<g id="Frame 1321317246">
<g id="Frame 1321317245">
<g id="Frame 1321317243">
<g id="cart card">
<g id="Frame 1321317242">
<g id="Frame 1321317241">
<g id="Frame 1321317240">
<g id="Frame 32">
<g id="Frame 32_2">
<g id="Frame 29">
<rect x="-5.24219" y="-4.62061" width="17.2414" height="17.2414" rx="8.62069" fill="#FF6E3F" fill-opacity="0.3"/>
<path id="+" d="M6.60257 3.2526V4.74743H4.12585V7.22416H2.63102V4.74743H0.154297V3.2526H2.63102V0.775879H4.12585V3.2526H6.60257Z" fill="#FF6E3F"/>
</g>
</g>
</g>
</g>
</g>
</g>
</g>
</g>
</g>
</g>
</g>
</g>
</g>
<defs>
<clipPath id="clip0_13_777">
<rect width="375" height="812" fill="white" transform="translate(-340 -176)"/>
</clipPath>
</defs>
</svg>
