<svg width="20" height="21" viewBox="0 0 20 21" fill="none" xmlns="http://www.w3.org/2000/svg">
<path fill-rule="evenodd" clip-rule="evenodd" d="M12.3056 0.416016H7.69442C7.49857 0.416007 7.31849 0.416 7.16738 0.42649C7.00496 0.437765 6.82637 0.463451 6.64488 0.539938C6.25284 0.70516 5.94136 1.02207 5.77897 1.42096C5.72437 1.55508 5.69611 1.68766 5.68048 1.8135C5.21916 1.81969 4.86081 1.8431 4.54122 1.93023C3.35806 2.25279 2.4339 3.19307 2.11687 4.39688C1.99961 4.84214 1.99978 5.36135 2.00002 6.12225L2.00004 14.188C2.00003 15.4602 2.00001 16.4856 2.10658 17.292C2.21722 18.1294 2.45392 18.8344 3.00424 19.3943C3.55457 19.9542 4.24748 20.195 5.07043 20.3076C5.86307 20.416 6.87094 20.416 8.12127 20.416H11.8788C13.1291 20.416 14.1369 20.416 14.9296 20.3076C15.7525 20.195 16.4454 19.9542 16.9958 19.3943C17.5461 18.8344 17.7828 18.1294 17.8934 17.292C18 16.4856 18 15.4602 18 14.188V6.12222C18.0002 5.36134 18.0004 4.84214 17.8831 4.39688C17.5661 3.19307 16.6419 2.25279 15.4588 1.93023C15.1392 1.8431 14.7808 1.81969 14.3195 1.8135C14.3039 1.68766 14.2757 1.55508 14.2211 1.42096C14.0587 1.02207 13.7472 0.70516 13.3551 0.539938C13.1737 0.463451 12.9951 0.437765 12.8326 0.42649C12.6815 0.416 12.5015 0.416007 12.3056 0.416016ZM7.04726 1.95212C7.07037 1.89739 7.11324 1.85377 7.16703 1.83026C7.17376 1.82852 7.19972 1.82284 7.26083 1.8186C7.35957 1.81175 7.49202 1.81137 7.7144 1.81137H12.2858C12.5082 1.81137 12.6406 1.81175 12.7394 1.8186C12.8005 1.82284 12.8265 1.82852 12.8332 1.83026C12.887 1.85377 12.9298 1.89739 12.953 1.95212C12.9547 1.95896 12.9602 1.98538 12.9644 2.04755C12.9711 2.14803 12.9715 2.28278 12.9715 2.50904C12.9715 2.73531 12.9711 2.87006 12.9644 2.97054C12.9602 3.0327 12.9547 3.05912 12.953 3.06596C12.9298 3.12069 12.887 3.16432 12.8332 3.18783C12.8265 3.18957 12.8005 3.19524 12.7394 3.19949C12.6406 3.20634 12.5082 3.20672 12.2858 3.20672H7.7144C7.49202 3.20672 7.35957 3.20634 7.26083 3.19949C7.19973 3.19524 7.17376 3.18957 7.16703 3.18783C7.11324 3.16432 7.07037 3.12069 7.04726 3.06597C7.04555 3.05912 7.03997 3.0327 7.0358 2.97054C7.02906 2.87006 7.02869 2.73531 7.02869 2.50904C7.02869 2.28278 7.02906 2.14803 7.0358 2.04755C7.03997 1.98539 7.04555 1.95897 7.04726 1.95212ZM6.07855 9.49226C6.07855 9.07238 6.41283 8.72993 6.82771 8.72993H13.1722C13.587 8.72993 13.9213 9.07238 13.9213 9.49226C13.9213 9.91215 13.587 10.2546 13.1722 10.2546H6.82771C6.41283 10.2546 6.07855 9.91215 6.07855 9.49226ZM6.07855 13.1873C6.07855 12.7674 6.41283 12.425 6.82771 12.425H13.1722C13.587 12.425 13.9213 12.7674 13.9213 13.1873C13.9213 13.6072 13.587 13.9496 13.1722 13.9496H6.82771C6.41283 13.9496 6.07855 13.6072 6.07855 13.1873Z" fill="#FF6E3F"/>
</svg>
