<svg width="30" height="30" viewBox="0 0 30 30" fill="none" xmlns="http://www.w3.org/2000/svg">
<path d="M7.57536 20.8337C7.13601 21.273 7.13601 21.9852 7.57536 22.4246C8.0147 22.8639 8.727 22.8639 9.16635 22.4246L15 16.5909L20.8337 22.4246C21.273 22.8639 21.9854 22.8639 22.4247 22.4246C22.8641 21.9852 22.8641 21.273 22.4247 20.8337L16.5911 14.9999L22.4246 9.16635C22.8639 8.727 22.8639 8.0147 22.4246 7.57536C21.9852 7.13601 21.273 7.13601 20.8337 7.57536L15 13.409L9.16643 7.57536C8.72708 7.13601 8.01477 7.13601 7.57544 7.57536C7.13609 8.0147 7.13609 8.727 7.57544 9.16635L13.409 14.9999L7.57536 20.8337Z" fill="#C0C0C0"/>
</svg>
